<?xml version="1.0" encoding="UTF-8" standalone="no"?>
<!-- Created with Inkscape (http://www.inkscape.org/) -->

<svg
   width="100.95318mm"
   height="33.768524mm"
   viewBox="0 0 99.594946 33.768524"
   version="1.1"
   id="svg1"
   xml:space="preserve"
   xmlns="http://www.w3.org/2000/svg"
   ><defs
     id="defs1" /><g
     id="layer1"
     transform="translate(-80.042402,-69.170928)"><path
       style="display:inline;fill:#000000;stroke-width:1;stroke-dasharray:none"
       d="m 94.491161,101.07666 c 2.865598,-2.547648 8.700829,-7.691644 9.773109,-8.61539 l 0.87833,-0.756668 v -5.325827 -5.325828 l -1.03946,-0.935102 -1.03946,-0.935102 -0.64844,0.558095 c -0.35665,0.306952 -0.80075,0.68475 -0.98691,0.839552 l -0.33846,0.281456 -0.0643,-2.891357 c -0.0616,-2.767836 -0.0753,-2.892834 -0.32164,-2.925929 -0.17356,-0.02332 -0.853307,0.497828 -2.088183,1.600968 l -1.830864,1.635541 -0.03468,-2.840671 c -0.03333,-2.72976 -0.04473,-2.841912 -0.291997,-2.872455 -0.171673,-0.0212 -0.942463,0.571207 -2.315847,1.779907 l -2.058531,1.811689 -0.06433,-3.474653 c -0.05551,-2.998235 -0.09163,-3.479972 -0.263424,-3.513444 -0.109501,-0.02133 -0.951603,0.623856 -1.871338,1.433758 -0.919734,0.809901 -2.697293,2.369795 -3.950132,3.466433 l -2.277889,1.993885 v 5.678806 5.678805 l -0.90394,-0.789079 c -0.964478,-0.841952 -1.116208,-0.911955 -1.244077,-0.573974 -0.09247,0.244418 0.136982,0.473574 2.85523,2.851527 0.984518,0.861268 2.454109,2.167849 3.265756,2.903514 0.811648,0.735666 1.554242,1.337574 1.65021,1.337574 0.09597,0 0.210119,-0.09418 0.25367,-0.209293 0.0558,-0.147501 -0.211285,-0.478104 -0.904646,-1.119767 L 87.64509,90.913158 v -5.002846 -5.002847 l 2.348012,-2.070301 c 4.133697,-3.644783 5.996972,-5.258724 6.071135,-5.258724 0.03976,0 0.07147,1.189135 0.07046,2.642524 l -0.0018,2.642524 -1.373945,1.174455 c -0.75567,0.64595 -2.057511,1.77868 -2.892979,2.517176 l -1.519035,1.342722 v 2.14802 c 0,2.020556 0.01445,2.14802 0.243551,2.14802 0.363208,0 0.41208,-0.273579 0.391839,-2.19344 -0.01637,-1.552197 0.0088,-1.778573 0.219863,-1.979289 0.131088,-0.12465 2.121994,-1.872755 4.424237,-3.884678 2.302242,-2.011922 4.263325,-3.752673 4.357965,-3.868335 0.0946,-0.115662 0.222887,-0.210294 0.284987,-0.210294 0.0621,0 0.1129,1.227899 0.1129,2.728664 v 2.728664 l -0.997104,0.885667 c -0.548406,0.487117 -1.272108,1.150819 -1.608227,1.474895 l -0.611127,0.589227 -0.0037,2.680053 -0.0037,2.680054 -2.567551,2.21793 -2.567551,2.21793 -0.03403,3.810946 -0.03403,3.810945 -2.058531,-1.83573 C 88.764537,99.037444 87.143444,97.616711 86.2943,96.88991 85.445156,96.163108 84.229336,95.096419 83.592478,94.519489 82.95562,93.942559 81.899015,93.00992 81.244466,92.446959 l -1.190088,-1.023567 v -4.877131 c 0,-4.733448 -0.0073,-4.877131 -0.248647,-4.877131 -0.136755,0 -0.28188,0.106207 -0.322499,0.236014 -0.04062,0.129808 -0.04399,2.346592 -0.0075,4.926187 0.0365,2.579595 0.06583,4.759599 0.06518,4.844454 -0.0011,0.140008 1.836814,1.780423 9.969825,8.898605 1.486002,1.30058 2.743004,2.36486 2.793338,2.36506 0.05033,2e-4 1.034568,-0.83805 2.187189,-1.86279 z m -1.828402,-2.878482 v -3.591487 l 4.277885,-3.771893 c 2.352837,-2.074541 4.355236,-3.867187 4.449786,-3.983659 0.1935,-0.238378 0.1012,-0.484188 -0.1818,-0.484188 -0.10324,0 -0.75116,0.504193 -1.439817,1.12043 -0.688658,0.616236 -1.41132,1.236824 -1.605916,1.379083 l -0.35381,0.258654 v -2.218017 -2.218017 l 2.414503,-2.129828 c 1.32797,-1.171406 2.51329,-2.209116 2.63404,-2.306024 0.19272,-0.154663 0.30645,-0.100897 0.93062,0.43996 l 0.71106,0.616157 v 5.045385 5.045386 l -1.76905,1.568018 c -3.132807,2.776801 -8.382584,7.384852 -9.456374,8.300442 l -0.611127,0.52109 z m -7.04276,-9.038311 -1.317472,-1.161729 -0.0013,-5.818272 -0.0013,-5.818271 2.147065,-1.880934 c 1.180886,-1.034514 2.729609,-2.393427 3.441607,-3.019807 0.711998,-0.62638 1.337963,-1.140204 1.391035,-1.141831 0.05307,-0.0016 0.09649,1.451103 0.09649,3.22829 v 3.231249 l -2.155025,1.874059 -2.155025,1.87406 -0.06433,4.897457 -0.06433,4.897457 z"
       id="path1" /><text
       xml:space="preserve"
       style="font-size:17.6389px;line-height:0;font-family:'New Peninim MT';-inkscape-font-specification:'New Peninim MT';text-align:start;letter-spacing:0px;writing-mode:lr-tb;direction:ltr;text-anchor:start;fill:#1a1a1a;stroke-width:100;stroke-dasharray:none"
       x="112.85384"
       y="91.6707"
       id="text1"><tspan
         id="tspan1"
         style="font-style:normal;font-variant:normal;font-weight:normal;font-stretch:normal;font-size:17.6389px;font-family:System-ui;-inkscape-font-specification:System-ui;letter-spacing:0px;stroke-width:100"
         x="112.85384"
         y="91.6707">Luca IQ</tspan></text></g></svg>