<svg xmlns="http://www.w3.org/2000/svg" version="1.1" xmlns:xlink="http://www.w3.org/1999/xlink" xmlns:svgjs="http://svgjs.dev/svgjs" width="1000" height="1000"><g clip-path="url(#SvgjsClipPath1141)"><rect width="1000" height="1000" fill="#34f4af"></rect><g transform="matrix(0.49603174603174605,0,0,0.49603174603174605,0,0)"><svg xmlns="http://www.w3.org/2000/svg" version="1.1" xmlns:xlink="http://www.w3.org/1999/xlink" xmlns:svgjs="http://svgjs.dev/svgjs" width="2016" height="2016"><svg width="2016" height="2016" viewBox="0 0 2016 2016" fill="none" xmlns="http://www.w3.org/2000/svg">
<circle cx="1008" cy="1008" r="1008" fill="#34F4AF"></circle>
<path d="M1785.63 512.927V521.277C1776.3 528.555 1770.05 532.931 1760.53 522.706L1493.64 255.854C1481.76 247.682 1486.68 232.455 1500.52 232.009C1520.48 231.384 1581.94 264.785 1600.83 276.573C1688.54 331.185 1753.7 414.599 1785.68 512.927H1785.63Z" fill="#1A191E"></path>
<path d="M1507.62 1780.61V1783.38H1493.73V1780.61C1497.62 1772.7 1503.6 1773.15 1507.62 1780.61Z" fill="#DCEFE3"></path>
<path d="M787.832 1469.59C781.624 1479.37 800.604 1499.2 806.991 1506.7C832.76 1536.8 866.747 1562.92 892.739 1593.28C900.019 1605.92 893.766 1621.64 881.172 1628.25C847.989 1645.62 747.146 1633.69 709.05 1624.09C692.437 1619.9 642.774 1596.36 630.627 1605.16C627.098 1607.71 628.617 1620.74 630.448 1624.9C635.763 1636.82 671.312 1659.28 681.941 1670.67C701.279 1691.39 707.353 1727.47 672.25 1730.68C644.293 1733.27 596.327 1718.09 569.174 1708.36C438.72 1661.69 331.758 1548.72 296.164 1414.22C290.805 1393.99 277.183 1340.94 291.251 1324.73C322.067 1289.15 371.06 1374.48 391.648 1385.46C400.357 1390.11 410.361 1390.29 412.192 1378.72C413.844 1368.23 392.273 1309.06 388.522 1291.33C380.438 1253.38 375.615 1209.17 378.875 1170.41C381.108 1143.62 387.941 1111.29 422.598 1123.84L523.531 1223.06C574.176 1244 534.16 1174.65 527.684 1154.96C497.493 1063.2 500.575 960.448 526.969 868.148C531.837 851.135 553.587 804.427 547.022 790.942C541.082 778.751 526.3 791.12 519.288 796.568C495.618 814.921 440.015 888.376 418.534 893.244C384.994 900.79 380.349 863.906 378.696 839.748C375.258 789.781 383.832 733.963 397.543 686.005C401.786 671.269 419.248 641.932 409.691 628.58C396.605 610.272 352.615 672.966 342.7 681.182C307.82 710.118 280.041 698.285 285.043 651.353C302.238 490.778 441.132 341.723 593.514 298.141C621.694 290.059 715.124 263.847 695.563 322.344C687.613 346.144 622.409 386.065 626.607 402.497C632.056 423.976 662.023 404.596 674.081 400.89C728.478 384.234 816.191 366.64 870.9 383.609C944.233 406.338 831.018 480.15 809.805 503.237C800.337 513.507 768.851 552.758 802.034 548.516C824.319 545.658 856.118 529.314 879.252 522.616C964.732 497.789 1071.34 498.369 1156.01 526.635C1169.99 531.279 1184.82 540.612 1199.07 544.765C1217.73 550.168 1234.75 553.428 1228.14 526.814L1126.18 423.083C1111.49 395.129 1135.2 384.011 1159.01 379.724C1219.34 368.918 1295.58 386.333 1353.46 404.328C1363.42 407.409 1371.19 416.474 1382.44 411.383C1396.82 404.819 1388.56 392.941 1382.04 384.1C1364.53 360.478 1317.06 341.589 1320.14 306.715C1322.86 275.993 1358.59 282.468 1379.9 286.174C1541.57 314.261 1723.29 481.401 1732.8 650.505C1734.95 688.282 1715.52 714.092 1679.97 686.675C1664.38 674.663 1637.63 634.43 1624.37 628.267C1615.84 624.293 1607.62 627.419 1604.18 636.037C1600.97 644.164 1616.2 674.216 1619.59 685.871C1633.57 733.695 1641.88 789.736 1638.44 839.614C1636.34 869.934 1628.7 908.828 1589.67 888.153L1489.23 788.441C1446.35 776.161 1481.81 836.622 1487.53 854.037C1515.8 940.041 1519.68 1048.15 1495.12 1135.54C1490.43 1152.19 1461.85 1213.14 1469.93 1224.66C1473.06 1229.13 1487.93 1228.42 1492.49 1224.66L1592.79 1124.77C1632.59 1108.43 1636.56 1149.42 1638.44 1178.49C1640.89 1216.27 1636.34 1259.32 1628.07 1296.24C1624.14 1313.75 1600.74 1371.58 1606.33 1382.92C1607.84 1386 1611.37 1388.23 1614.77 1388.54C1639.6 1390.91 1671.57 1317.46 1706.41 1317.63C1758.44 1317.9 1717.31 1429.31 1707.12 1455.88C1656.84 1587.12 1545.54 1684.02 1410.31 1720.68C1390.39 1726.08 1330.77 1743.01 1322.6 1716.66C1308.84 1672.45 1372.48 1652.05 1387.71 1622.98C1409.68 1581.05 1320.68 1620.79 1307.99 1623.96C1269.81 1633.43 1169.32 1645.53 1135.87 1628.11C1117.34 1618.47 1118.68 1602.62 1129.44 1587.21L1226.4 1489.6C1241.94 1441.64 1170.71 1483.03 1151.1 1489.33C1064.77 1517.1 952.54 1515.85 865.988 1489.24C853.706 1485.44 795.469 1457.36 787.832 1469.41V1469.59Z" fill="#1A191E"></path>
<path d="M241.723 1486.38C246.457 1485 251.28 1485.27 255.21 1488.57C333.589 1574.08 426.707 1651.56 503.969 1737.43C525.138 1760.96 552.515 1790.88 494.993 1776.99C400.044 1754.13 296.521 1644.01 254.496 1558.77C248.288 1546.22 220.777 1492.55 241.767 1486.38H241.723Z" fill="#1A191E"></path>
<path d="M511.561 232.723C521.789 231.339 534.785 237.01 529.649 247.995L256.505 522.706C236.631 538.29 231.227 521.455 235.425 501.629C245.072 456.216 300.138 377.045 332.875 343.331C368.826 306.224 460.738 239.689 511.561 232.723Z" fill="#1A191E"></path>
<path d="M1507.62 1780.61C1503.15 1781.19 1498.24 1780.21 1493.73 1780.61C1476.4 1764.98 1499.54 1754.08 1509.09 1744.53C1593.82 1659.69 1678.63 1574.89 1763.35 1490.05C1798.45 1462.99 1775.05 1532.38 1769.47 1546.18C1734.09 1633.74 1604.09 1767.7 1507.62 1780.56V1780.61Z" fill="#1A191E"></path>
<path d="M824.324 816.921C824.501 769.963 875.445 740.806 916.023 764.438L1242.31 954.464C1282.89 978.096 1282.66 1036.79 1241.91 1060.12L914.2 1247.68C873.445 1271 822.723 1241.46 822.9 1194.5L824.324 816.921Z" fill="#34F4AF"></path>
</svg></svg></g></g><defs><clipPath id="SvgjsClipPath1141"><rect width="1000" height="1000" x="0" y="0" rx="300" ry="300"></rect></clipPath></defs></svg>